<?xml version="1.0" encoding="iso-8859-1"?><!-- Generator: Adobe Illustrator 22.1.0, SVG Export Plug-In . SVG Version: 6.00 Build 0)  -->
<svg xmlns="http://www.w3.org/2000/svg" xmlns:xlink="http://www.w3.org/1999/xlink" viewBox="0 0 24 24" width="24px"
     height="24px">
    <g id="Filled">
        <path style="fill:#FF8A56;stroke:none;stroke-width:2;stroke-miterlimit:10;"
              d="M19.882,4.102C19.331,4.319,7.704,9.216,3.7,10.901c-0.234,0.098-0.697,0.248-0.697,0.736c0,0.392,0.301,0.586,0.648,0.724C4.527,12.71,7.75,14,7.75,14s1.151,3.445,1.39,4.2c0.239,0.756,0.431,0.774,0.431,0.774c0.053,0.023,0.105,0.032,0.153,0.032c0.154,0,0.272-0.09,0.272-0.09L13,16.375l3.524,3.26c0,0,0.35,0.365,0.737,0.365c0.471,0,0.812-0.47,0.872-0.775C18.216,18.798,20.95,5.07,20.95,5.07C21.198,3.963,20.463,3.873,19.882,4.102z"/>
        <path style="fill:black;stroke:none;" d="M16.8,8c-0.125,0-0.294,0.119-0.384,0.175c-1.288,0.803-7.746,4.478-9.517,5.484C7.398,13.859,7.75,14,7.75,14s1.151,3.445,1.39,4.2c0.239,0.756,0.431,0.774,0.431,0.774c0.053,0.023,0.105,0.032,0.153,0.032c0.039,0,0.066-0.014,0.099-0.023L11,14.375c0,0,5.363-5.428,5.686-5.744C16.946,8.378,17,8.289,17,8.201C17,8.084,16.939,8,16.8,8z"/>
    </g>
</svg>